<svg width="20" height="20" viewBox="0 0 20 20" xmlns="http://www.w3.org/2000/svg">
<path d="M9.07088 1.61234C9.41462 0.795884 10.5854 0.795886 10.9291 1.61235L12.9579 6.43124C13.1029 6.77544 13.4306 7.01061 13.8067 7.0404L19.0727 7.45748C19.9649 7.52815 20.3267 8.62814 19.6469 9.2034L15.6348 12.5987C15.3482 12.8412 15.223 13.2218 15.3106 13.5843L16.5363 18.661C16.744 19.5211 15.7969 20.201 15.033 19.7401C15.033 19.7401 10.8465 17.214 10.5245 17.0196C10.2025 16.8252 9.7975 16.8252 9.47548 17.0196L4.96699 19.7401C4.20311 20.201 3.25596 19.5211 3.46363 18.661L4.68942 13.5843C4.77698 13.2218 4.65182 12.8412 4.36526 12.5987L0.353062 9.2034C-0.326718 8.62814 0.035068 7.52815 0.927291 7.45748L6.19336 7.0404C6.5695 7.01061 6.89716 6.77544 7.04207 6.43124L9.07088 1.61234Z" />
</svg>
