<svg width="0" height="0" class="hidden">
  <symbol xmlns="http://www.w3.org/2000/svg" viewBox="0 0 40 40" id="galary">
    <path d="M26.25 15.625C26.25 16.1222 26.0525 16.5993 25.7009 16.9509C25.3492 17.3025 24.8722 17.5 24.375 17.5C23.8778 17.5 23.4008 17.3025 23.0491 16.9509C22.6975 16.5993 22.5 16.1222 22.5 15.625C22.5 15.1278 22.6975 14.6507 23.0491 14.2991C23.4008 13.9475 23.8778 13.75 24.375 13.75C24.8722 13.75 25.3492 13.9475 25.7009 14.2991C26.0525 14.6507 26.25 15.1278 26.25 15.625ZM36.25 8.75V28.75V31.25C36.25 31.913 35.9866 32.5489 35.5177 33.0177C35.0489 33.4866 34.413 33.75 33.75 33.75H6.25C5.58696 33.75 4.95107 33.4866 4.48224 33.0177C4.01339 32.5489 3.75 31.913 3.75 31.25V26.25V8.75C3.75 8.08696 4.01339 7.45108 4.48224 6.98224C4.95107 6.51339 5.58696 6.25 6.25 6.25H33.75C34.413 6.25 35.0489 6.51339 35.5177 6.98224C35.9866 7.45108 36.25 8.08696 36.25 8.75ZM33.75 25.7344V8.75H6.25V23.2344L11.9844 17.5C12.455 17.0363 13.0892 16.7762 13.75 16.7762C14.4108 16.7762 15.045 17.0363 15.5156 17.5L22.5 24.4844L25.7344 21.25C26.205 20.7863 26.8393 20.5262 27.5 20.5262C28.1607 20.5262 28.795 20.7863 29.2656 21.25L33.75 25.7344Z"></path>
  </symbol>
  <symbol xmlns="http://www.w3.org/2000/svg" viewBox="0 0 40 40" id="library">
    <path d="M36.5 30.5625L30.0312 6.4063C29.8592 5.7661 29.4399 5.22046 28.8656 4.88935C28.2913 4.55825 27.609 4.4688 26.9688 4.64067L22.1406 5.93755L21.9844 5.98442C21.7515 5.67891 21.4512 5.43117 21.1071 5.26046C20.763 5.08975 20.3841 5.00063 20 5.00005H15C14.5601 5.00123 14.1286 5.11991 13.75 5.3438C13.3714 5.11991 12.9399 5.00123 12.5 5.00005H7.5C6.83696 5.00005 6.20108 5.26343 5.73224 5.73228C5.26339 6.20112 5 6.83701 5 7.50005V32.5C5 33.1631 5.26339 33.799 5.73224 34.2679C6.20108 34.7366 6.83696 35 7.5 35H12.5C12.9399 34.9989 13.3714 34.8802 13.75 34.6562C14.1286 34.8802 14.5601 34.9989 15 35H20C20.663 35 21.2989 34.7366 21.7677 34.2679C22.2366 33.799 22.5 33.1631 22.5 32.5V16.9375L26.8438 33.1406C26.9852 33.6746 27.2998 34.1466 27.7379 34.483C28.176 34.8194 28.7132 35.0012 29.2656 35C29.4813 34.9962 29.696 34.9701 29.9062 34.9219L34.7344 33.625C35.3746 33.453 35.9203 33.0337 36.2514 32.4594C36.5824 31.8851 36.6719 31.2027 36.5 30.5625ZM27.6094 7.06255L28.5938 10.6719L23.7656 11.9688L22.7812 8.35942L27.6094 7.06255ZM20 7.50005V26.25H15V7.50005H20ZM12.5 7.50005V11.25H7.5V7.50005H12.5ZM20 32.5H15V28.75H20V32.5ZM34.0938 31.2031L29.2656 32.5L28.2812 28.875L33.125 27.5781L34.0938 31.2031Z"></path>
  </symbol>
  <symbol xmlns="http://www.w3.org/2000/svg" viewBox="0 0 40 40" id="micro">
    <path d="M15 13.75C14.9971 14.152 15.018 14.5538 15.0625 14.9532L3.37504 30.8907C3.02107 31.3728 2.85166 31.9658 2.89754 32.562C2.9434 33.1583 3.20151 33.7184 3.62504 34.1407L5.85941 36.375C6.28167 36.7985 6.84176 37.0567 7.43806 37.1025C8.03436 37.1484 8.62735 36.979 9.10941 36.625L25.0469 24.9375C25.4464 24.9822 25.8481 25.003 26.25 25C28.5464 25.0003 30.7876 24.2968 32.6719 22.9844C32.7461 22.9317 32.808 22.8633 32.853 22.7842C32.8981 22.7049 32.9252 22.6169 32.9327 22.526C32.9402 22.4353 32.9277 22.3439 32.8961 22.2584C32.8646 22.173 32.8147 22.0955 32.75 22.0313L17.9687 7.25006C17.9046 7.18538 17.8271 7.13552 17.7416 7.10395C17.6561 7.07239 17.5649 7.05991 17.474 7.06734C17.3832 7.07478 17.2951 7.10199 17.216 7.14704C17.1367 7.19211 17.0685 7.25393 17.0156 7.32818C15.7032 9.21251 14.9997 11.4537 15 13.75ZM17.7656 24.0157L14.6406 27.1407C14.4017 27.3717 14.0824 27.5009 13.75 27.5009C13.4176 27.5009 13.0984 27.3717 12.8594 27.1407C12.6246 26.9037 12.493 26.5837 12.493 26.25C12.493 25.9165 12.6246 25.5964 12.8594 25.3594L15.9844 22.2344C16.2272 22.0352 16.5356 21.9333 16.8494 21.9487C17.1632 21.964 17.4601 22.0957 17.6822 22.3178C17.9045 22.54 18.036 22.8369 18.0515 23.1507C18.0669 23.4645 17.965 23.7728 17.7656 24.0157ZM37.4844 13.125C37.6226 15.6314 36.9185 18.1119 35.4844 20.1719C35.4316 20.2462 35.3632 20.308 35.2841 20.353C35.2049 20.3982 35.1169 20.4253 35.026 20.4328C34.9352 20.4403 34.8439 20.4278 34.7585 20.3962C34.673 20.3647 34.5955 20.3148 34.5312 20.25L19.75 5.46881C19.6854 5.40464 19.6355 5.32712 19.6039 5.24165C19.5724 5.15619 19.5599 5.06487 19.5674 4.97407C19.5747 4.88327 19.602 4.79519 19.647 4.71602C19.6921 4.63683 19.7539 4.56846 19.8281 4.51568C21.4716 3.37261 23.3904 2.68878 25.3862 2.53476C27.3822 2.38073 29.3831 2.76209 31.1825 3.63949C32.9819 4.51688 34.5146 5.85853 35.6224 7.52598C36.7301 9.19342 37.373 11.1263 37.4844 13.125Z"></path>
  </symbol>
  <symbol xmlns="http://www.w3.org/2000/svg" viewBox="0 0 40 40" id="music">
    <path d="M36.25 8.75C36.25 9.08152 36.1183 9.39946 35.8839 9.63389C35.6495 9.8683 35.3315 10 35 10H32.5V12.5C32.5 12.8315 32.3683 13.1495 32.1339 13.3839C31.8995 13.6182 31.5815 13.75 31.25 13.75C30.9185 13.75 30.6005 13.6182 30.3661 13.3839C30.1318 13.1495 30 12.8315 30 12.5V10H27.5C27.1685 10 26.8505 9.8683 26.6161 9.63389C26.3818 9.39946 26.25 9.08152 26.25 8.75C26.25 8.41848 26.3818 8.10054 26.6161 7.86611C26.8505 7.6317 27.1685 7.5 27.5 7.5H30V5C30 4.66848 30.1318 4.35054 30.3661 4.11611C30.6005 3.8817 30.9185 3.75 31.25 3.75C31.5815 3.75 31.8995 3.8817 32.1339 4.11611C32.3683 4.35054 32.5 4.66848 32.5 5V7.5H35C35.3315 7.5 35.6495 7.6317 35.8839 7.86611C36.1183 8.10054 36.25 8.41848 36.25 8.75ZM32.5 17.375C32.1685 17.375 31.8505 17.5068 31.6161 17.7411C31.3818 17.9755 31.25 18.2935 31.25 18.625V22.2031C30.3285 21.5771 29.239 21.2449 28.125 21.25C27.0125 21.25 25.925 21.5799 24.9999 22.198C24.0749 22.8161 23.3539 23.6946 22.9281 24.7224C22.5025 25.7503 22.391 26.8812 22.6081 27.9724C22.8251 29.0635 23.3609 30.0657 24.1475 30.8525C24.9343 31.6391 25.9365 32.1749 27.0276 32.3919C28.1188 32.609 29.2498 32.4976 30.2776 32.0719C31.3054 31.6461 32.1839 30.9251 32.802 30.0001C33.4201 29.075 33.75 27.9875 33.75 26.875V18.625C33.75 18.2935 33.6183 17.9755 33.3839 17.7411C33.1495 17.5068 32.8315 17.375 32.5 17.375ZM25.375 15.5469C25.543 15.4712 25.6919 15.3591 25.8109 15.2185C25.9298 15.078 26.0158 14.9125 26.0625 14.7344C26.1154 14.5238 26.1144 14.3031 26.0598 14.0929C26.0053 13.8827 25.8986 13.6896 25.75 13.5312C25.631 13.4199 25.4935 13.33 25.3438 13.2656C24.4951 12.8539 23.7789 12.2126 23.2763 11.4144C22.7736 10.6163 22.5046 9.69322 22.5 8.75C22.5 8.50446 22.5158 8.25917 22.5469 8.01562C22.5838 7.82401 22.5746 7.6264 22.5203 7.43899C22.466 7.25157 22.368 7.07971 22.2344 6.9375C22.081 6.77548 21.8874 6.6569 21.6734 6.59379C21.4594 6.53068 21.2324 6.52527 21.0156 6.57812L12.2031 8.78125C11.9305 8.8479 11.6882 9.00436 11.5154 9.22544C11.3425 9.44651 11.249 9.71935 11.25 10V27.2031C10.3285 26.5771 9.23903 26.2449 8.125 26.25C7.01249 26.25 5.92495 26.5799 4.99993 27.198C4.07489 27.8161 3.35393 28.6946 2.92818 29.7224C2.50244 30.7503 2.39104 31.8812 2.60809 32.9724C2.82513 34.0635 3.36085 35.0657 4.14753 35.8525C4.9342 36.6391 5.93648 37.1749 7.02763 37.3919C8.11876 37.609 9.24977 37.4976 10.2776 37.0719C11.3054 36.6461 12.1839 35.9251 12.802 35.0001C13.4201 34.075 13.75 32.9875 13.75 31.875V18.4688L25.125 15.625L25.375 15.5469Z"></path>
  </symbol>
  <symbol xmlns="http://www.w3.org/2000/svg" viewBox="0 0 12 21" id="play">
    <g clip-path="url(#clip0_31_1456)">
      <path d="M11.4545 10.5L0 20.1995L5.96801e-07 0.800537L11.4545 10.5Z"></path>
    </g>
    <defs>
      <clipPath id="clip0_31_1456">
        <rect width="12" height="21" fill="white"></rect>
      </clipPath>
    </defs>
  </symbol>
  <symbol xmlns="http://www.w3.org/2000/svg" viewBox="0 0 51 46" id="quotes">
    <g clip-path="url(#clip0_31_1620)">
      <path d="M20.3744 45.9605V24.0669H10.9106C10.9106 20.5602 11.5798 17.6221 12.9181 15.2526C14.2564 12.7885 16.7418 10.9403 20.3744 9.70817V0.325195C17.411 0.704308 14.6388 1.60469 12.0578 3.02635C9.57235 4.35325 7.42149 6.05925 5.60522 8.14435C3.78895 10.2294 2.35507 12.6463 1.30354 15.3948C0.347611 18.1434 -0.0825576 21.0815 0.0130354 24.2091V45.9605H20.3744ZM50.9164 45.9605V24.0669H41.4527C41.4527 20.5602 42.1217 17.6221 43.4601 15.2526C44.7985 12.7885 47.2837 10.9403 50.9164 9.70817V0.325195C47.9531 0.704308 45.1807 1.60469 42.5999 3.02635C40.1143 4.35325 37.9635 6.05925 36.1473 8.14435C34.331 10.2294 32.8971 12.6463 31.8455 15.3948C30.8896 18.1434 30.4594 21.0815 30.555 24.2091V45.9605H50.9164Z"></path>
    </g>
    <defs>
      <clipPath id="clip0_31_1620">
        <rect width="51" height="46" fill="white"></rect>
      </clipPath>
    </defs>
  </symbol>
  <symbol xmlns="http://www.w3.org/2000/svg" viewBox="0 0 40 40" id="social">
    <path d="M9.99999 21.875C10.0021 22.0397 9.97119 22.2032 9.90911 22.3558C9.84704 22.5085 9.75504 22.6471 9.63855 22.7636C9.52205 22.8801 9.38342 22.972 9.23081 23.0341C9.07821 23.0962 8.91473 23.1271 8.74999 23.125H1.87499C1.64276 23.1231 1.41543 23.0581 1.21727 22.9371C1.01912 22.816 0.857599 22.6432 0.749988 22.4375C0.649922 22.228 0.608694 21.9951 0.630711 21.764C0.652727 21.5327 0.737164 21.3118 0.874989 21.125C1.98121 19.64 3.45735 18.471 5.15624 17.7343C4.42623 17.0661 3.86534 16.2341 3.51975 15.3067C3.17416 14.3793 3.05374 13.3831 3.1684 12.4001C3.28306 11.4171 3.62953 10.4754 4.17928 9.65242C4.72903 8.82947 5.46635 8.14885 6.33056 7.66656C7.19478 7.18427 8.16116 6.91411 9.15019 6.8783C10.1392 6.8425 11.1226 7.04207 12.0194 7.46061C12.9163 7.87915 13.7009 8.50467 14.3086 9.28571C14.9165 10.0667 15.3301 10.981 15.5156 11.9531C15.5619 12.2063 15.5298 12.4676 15.4236 12.7021C15.3176 12.9366 15.1425 13.1332 14.9219 13.2656C12.901 14.464 11.364 16.3327 10.5781 18.5468C10.1907 19.6135 9.99499 20.7402 9.99999 21.875ZM39.125 21.125C38.0188 19.64 36.5426 18.471 34.8438 17.7343C35.5738 17.0661 36.1346 16.2341 36.4803 15.3067C36.8258 14.3793 36.9463 13.3831 36.8316 12.4001C36.7169 11.4171 36.3704 10.4754 35.8206 9.65242C35.2709 8.82947 34.5336 8.14885 33.6694 7.66656C32.8051 7.18427 31.8388 6.91411 30.8498 6.8783C29.8608 6.8425 28.8774 7.04207 27.9805 7.46061C27.0838 7.87915 26.2991 8.50467 25.6913 9.28571C25.0835 10.0667 24.6698 10.981 24.4844 11.9531C24.4381 12.2063 24.4701 12.4676 24.5763 12.7021C24.6824 12.9366 24.8574 13.1332 25.0781 13.2656C27.1016 14.4608 28.6395 16.3307 29.4219 18.5468C29.8093 19.6135 30.005 20.7402 30 21.875C29.9979 22.0397 30.0288 22.2032 30.0909 22.3558C30.1529 22.5085 30.2449 22.6471 30.3614 22.7636C30.4779 22.8801 30.6165 22.972 30.7691 23.0341C30.9218 23.0962 31.0853 23.1271 31.25 23.125H38.125C38.3571 23.125 38.5846 23.0603 38.7821 22.9383C38.9796 22.8162 39.1393 22.6416 39.243 22.434C39.3469 22.2263 39.3908 21.994 39.3699 21.7627C39.3491 21.5315 39.2643 21.3107 39.125 21.125ZM24.5625 27.8281C25.8065 26.8746 26.7205 25.5552 27.1761 24.0556C27.6318 22.5558 27.606 20.951 27.1026 19.4666C26.5991 17.9822 25.6434 16.6928 24.3694 15.7797C23.0954 14.8666 21.5674 14.3755 20 14.3755C18.4325 14.3755 16.9045 14.8666 15.6306 15.7797C14.3566 16.6928 13.4008 17.9822 12.8974 19.4666C12.3939 20.951 12.3682 22.5558 12.8238 24.0556C13.2794 25.5552 14.1935 26.8746 15.4375 27.8281C13.007 28.9071 11.0367 30.8111 9.87499 33.2031C9.78255 33.3932 9.74117 33.6041 9.75485 33.815C9.76855 34.026 9.83688 34.2297 9.95311 34.4062C10.0613 34.5873 10.2146 34.7372 10.3982 34.8413C10.5817 34.9455 10.789 35.0001 11 35H29C29.2109 35.0001 29.4183 34.9455 29.6019 34.8413C29.7854 34.7372 29.9386 34.5873 30.0469 34.4062C30.1631 34.2297 30.2314 34.026 30.2451 33.815C30.2588 33.6041 30.2174 33.3932 30.125 33.2031C28.9633 30.8111 26.9929 28.9071 24.5625 27.8281Z"></path>
  </symbol>
  <symbol xmlns="http://www.w3.org/2000/svg" viewBox="0 0 20 20" id="star">
    <path d="M9.07088 1.61234C9.41462 0.795884 10.5854 0.795886 10.9291 1.61235L12.9579 6.43124C13.1029 6.77544 13.4306 7.01061 13.8067 7.0404L19.0727 7.45748C19.9649 7.52815 20.3267 8.62814 19.6469 9.2034L15.6348 12.5987C15.3482 12.8412 15.223 13.2218 15.3106 13.5843L16.5363 18.661C16.744 19.5211 15.7969 20.201 15.033 19.7401C15.033 19.7401 10.8465 17.214 10.5245 17.0196C10.2025 16.8252 9.7975 16.8252 9.47548 17.0196L4.96699 19.7401C4.20311 20.201 3.25596 19.5211 3.46363 18.661L4.68942 13.5843C4.77698 13.2218 4.65182 12.8412 4.36526 12.5987L0.353062 9.2034C-0.326718 8.62814 0.035068 7.52815 0.927291 7.45748L6.19336 7.0404C6.5695 7.01061 6.89716 6.77544 7.04207 6.43124L9.07088 1.61234Z"></path>
  </symbol>
  <symbol xmlns="http://www.w3.org/2000/svg" viewBox="0 0 34 32" id="tv">
    <path d="M33.25 10.4999V29.25C33.25 29.913 32.9866 30.5488 32.5177 31.0177C32.0489 31.4866 31.413 31.75 30.75 31.75H3.25C2.58696 31.75 1.95107 31.4866 1.48224 31.0177C1.01339 30.5488 0.75 29.913 0.75 29.25V10.4999C0.75 9.83691 1.01339 9.20102 1.48224 8.73218C1.95107 8.26335 2.58696 7.99995 3.25 7.99995H13.9844L8.60938 2.64057C8.41005 2.39771 8.30819 2.08937 8.3236 1.77556C8.33901 1.46175 8.4706 1.16488 8.69276 0.942709C8.91494 0.720546 9.2118 0.588959 9.52563 0.573546C9.83938 0.558134 10.1478 0.659996 10.3906 0.859321L17 7.48432L23.6094 0.859321C23.8522 0.659996 24.1606 0.558134 24.4744 0.573546C24.7882 0.588959 25.0851 0.720546 25.3072 0.942709C25.5294 1.16488 25.661 1.46175 25.6764 1.77556C25.6919 2.08937 25.59 2.39771 25.3906 2.64057L20.0156 7.99995H30.75C31.413 7.99995 32.0489 8.26335 32.5177 8.73218C32.9866 9.20102 33.25 9.83691 33.25 10.4999Z"></path>
  </symbol>
  <symbol xmlns="http://www.w3.org/2000/svg" viewBox="0 0 14 22" id="arrow">
    <path d="M12.5261 0.723606C12.8321 1.02961 13.0039 1.44457 13.0039 1.87726C13.0039 2.30994 12.8321 2.72491 12.5261 3.03091L4.44895 11.1081L12.5261 19.1853C12.8234 19.4931 12.9879 19.9052 12.9841 20.3331C12.9804 20.7609 12.8088 21.1702 12.5063 21.4727C12.2037 21.7753 11.7945 21.9469 11.3666 21.9506C10.9388 21.9543 10.5266 21.7898 10.2188 21.4926L0.987997 12.2618C0.68209 11.9558 0.510241 11.5408 0.510241 11.1081C0.510241 10.6754 0.68209 10.2605 0.987997 9.95445L10.2188 0.723606C10.5248 0.417699 10.9398 0.24585 11.3725 0.24585C11.8052 0.24585 12.2202 0.417699 12.5261 0.723606Z"></path>
  </symbol>
  <symbol xmlns="http://www.w3.org/2000/svg" viewBox="0 0 40 40" id="book">
    <path d="M33.75 7.5H8.75C8.08696 7.5 7.45108 7.76339 6.98224 8.23224C6.51339 8.70108 6.25 9.33696 6.25 10V28.75C6.25 29.0815 6.1183 29.3995 5.88389 29.6339C5.64946 29.8682 5.33152 30 5 30C4.66848 30 4.35054 29.8682 4.11611 29.6339C3.8817 29.3995 3.75 29.0815 3.75 28.75V13.75C3.75 13.4185 3.6183 13.1005 3.38389 12.8661C3.14946 12.6318 2.83152 12.5 2.5 12.5C2.16848 12.5 1.85054 12.6318 1.61611 12.8661C1.3817 13.1005 1.25 13.4185 1.25 13.75V28.75C1.25 29.7445 1.64509 30.6984 2.34835 31.4016C3.05161 32.1049 4.00544 32.5 5 32.5H32.5C33.4933 32.4959 34.4448 32.0995 35.1471 31.3971C35.8495 30.6948 36.2459 29.7433 36.25 28.75V10C36.25 9.33696 35.9866 8.70108 35.5177 8.23224C35.0489 7.76339 34.413 7.5 33.75 7.5ZM27.5 23.75H15C14.6685 23.75 14.3505 23.6182 14.1161 23.3839C13.8818 23.1495 13.75 22.8315 13.75 22.5C13.75 22.1685 13.8818 21.8505 14.1161 21.6161C14.3505 21.3818 14.6685 21.25 15 21.25H27.5C27.8315 21.25 28.1495 21.3818 28.3839 21.6161C28.6182 21.8505 28.75 22.1685 28.75 22.5C28.75 22.8315 28.6182 23.1495 28.3839 23.3839C28.1495 23.6182 27.8315 23.75 27.5 23.75ZM27.5 18.75H15C14.6685 18.75 14.3505 18.6182 14.1161 18.3839C13.8818 18.1495 13.75 17.8315 13.75 17.5C13.75 17.1685 13.8818 16.8505 14.1161 16.6161C14.3505 16.3818 14.6685 16.25 15 16.25H27.5C27.8315 16.25 28.1495 16.3818 28.3839 16.6161C28.6182 16.8505 28.75 17.1685 28.75 17.5C28.75 17.8315 28.6182 18.1495 28.3839 18.3839C28.1495 18.6182 27.8315 18.75 27.5 18.75Z"></path>
  </symbol>
  <symbol xmlns="http://www.w3.org/2000/svg" viewBox="0 0 40 40" id="book-second">
    <path d="M32.5 3.75H11.25C9.92519 3.75412 8.65581 4.28223 7.71901 5.21901C6.78223 6.15581 6.25412 7.42519 6.25 8.75V35C6.25 35.3315 6.3817 35.6495 6.61611 35.8839C6.85054 36.1182 7.16848 36.25 7.5 36.25H30C30.3315 36.25 30.6495 36.1182 30.8839 35.8839C31.1182 35.6495 31.25 35.3315 31.25 35C31.25 34.6685 31.1182 34.3505 30.8839 34.1161C30.6495 33.8818 30.3315 33.75 30 33.75H8.75C8.75 33.087 9.01339 32.4511 9.48224 31.9823C9.95108 31.5134 10.587 31.25 11.25 31.25H32.5C32.8315 31.25 33.1495 31.1182 33.3839 30.8839C33.6182 30.6495 33.75 30.3315 33.75 30V5C33.75 4.66848 33.6182 4.35054 33.3839 4.11611C33.1495 3.8817 32.8315 3.75 32.5 3.75ZM28.75 18.75L24.75 15.75C24.6429 15.6664 24.5109 15.621 24.375 15.621C24.2391 15.621 24.1071 15.6664 24 15.75L20 18.75V6.25H28.75V18.75Z"></path>
  </symbol>
  <symbol xmlns="http://www.w3.org/2000/svg" viewBox="0 0 40 40" id="camera">
    <path d="M32.5 8.75005H28.1719L26.0469 5.56255C25.9338 5.38828 25.7786 5.24535 25.5956 5.14703C25.4126 5.0487 25.2078 4.99815 25 5.00005H15C14.7922 4.99815 14.5874 5.0487 14.4044 5.14703C14.2214 5.24535 14.0663 5.38828 13.9531 5.56255L11.8281 8.75005H7.5C6.5067 8.75416 5.55526 9.15058 4.85289 9.85295C4.15052 10.5553 3.75411 11.5068 3.75 12.5V30C3.75411 30.9934 4.15052 31.9448 4.85289 32.6471C5.55526 33.3495 6.5067 33.746 7.5 33.75H32.5C33.4932 33.746 34.4447 33.3495 35.1471 32.6471C35.8495 31.9448 36.2459 30.9934 36.25 30V12.5C36.2459 11.5068 35.8495 10.5553 35.1471 9.85295C34.4447 9.15058 33.4932 8.75416 32.5 8.75005ZM25.2969 25.9219C24.6027 26.6201 23.7775 27.1743 22.8684 27.5524C21.9594 27.9305 20.9845 28.1253 20 28.1253C19.0155 28.1253 18.0406 27.9305 17.1316 27.5524C16.2225 27.1743 15.3973 26.6201 14.7031 25.9219H14.6875L13.9531 25.1563L13.7344 26.4531C13.6833 26.7444 13.5319 27.0085 13.3064 27.1998C13.0809 27.391 12.7956 27.4973 12.5 27.5H12.2969C12.1347 27.4735 11.9794 27.4153 11.8398 27.3286C11.7002 27.242 11.579 27.1286 11.4832 26.9951C11.3874 26.8616 11.3189 26.7105 11.2816 26.5505C11.2442 26.3905 11.2388 26.2246 11.2656 26.0625L11.8906 22.3125C11.9352 22.0553 12.0582 21.8181 12.2428 21.6335C12.4274 21.4489 12.6646 21.3259 12.9219 21.2812L16.6719 20.6563C16.9992 20.6024 17.3346 20.6809 17.6042 20.8743C17.8737 21.0676 18.0555 21.3601 18.1094 21.6875C18.1632 22.0149 18.0849 22.3503 17.8915 22.6199C17.6981 22.8895 17.4055 23.0711 17.0781 23.125L15.6719 23.3594L16.4688 24.1875C17.4097 25.1143 18.6792 25.6311 20 25.625C20.6569 25.6283 21.3076 25.5 21.9141 25.2478C22.5206 24.9955 23.0704 24.6244 23.5312 24.1563C23.7656 23.9225 24.0831 23.7913 24.414 23.7913C24.745 23.7913 25.0625 23.9225 25.2969 24.1563C25.4145 24.2713 25.508 24.4086 25.5719 24.5602C25.6356 24.7118 25.6685 24.8746 25.6685 25.0391C25.6685 25.2036 25.6356 25.3664 25.5719 25.518C25.508 25.6696 25.4145 25.807 25.2969 25.9219ZM28.7344 15.2031L28.1094 18.9531C28.0649 19.2105 27.9419 19.4476 27.7572 19.6323C27.5726 19.8169 27.3354 19.9399 27.0781 19.9844L23.3281 20.6094H23.125C22.8294 20.6066 22.5441 20.5004 22.3186 20.3091C22.0931 20.1179 21.9418 19.8538 21.8906 19.5625C21.8639 19.4004 21.8692 19.2346 21.9066 19.0746C21.9439 18.9146 22.0124 18.7635 22.1082 18.63C22.204 18.4965 22.3251 18.3831 22.4648 18.2965C22.6044 18.2099 22.7598 18.1516 22.9219 18.125L24.3281 17.8906L23.5312 17.0625C22.5903 16.1358 21.3207 15.619 20 15.625C19.3431 15.6219 18.6924 15.7501 18.0859 16.0024C17.4794 16.2546 16.9296 16.6258 16.4688 17.0938C16.2344 17.3276 15.9169 17.4589 15.586 17.4589C15.255 17.4589 14.9375 17.3276 14.7031 17.0938C14.5855 16.9789 14.492 16.8415 14.4282 16.6899C14.3644 16.5383 14.3315 16.3755 14.3315 16.211C14.3315 16.0465 14.3644 15.8836 14.4282 15.7321C14.492 15.5805 14.5855 15.4431 14.7031 15.3281C15.3973 14.6299 16.2225 14.0758 17.1316 13.6978C18.0406 13.3196 19.0155 13.1249 20 13.1249C20.9845 13.1249 21.9594 13.3196 22.8684 13.6978C23.7775 14.0758 24.6027 14.6299 25.2969 15.3281C25.3125 15.3281 25.3125 15.3281 25.3125 15.3438L26.0469 16.0938L26.2656 14.7969C26.3195 14.4695 26.5012 14.177 26.7707 13.9836C27.0404 13.7903 27.3757 13.7118 27.7031 13.7656C28.0305 13.8195 28.3231 14.0013 28.5165 14.2709C28.7099 14.5404 28.7882 14.8758 28.7344 15.2031Z"></path>
  </symbol>
  <symbol xmlns="http://www.w3.org/2000/svg" viewBox="0 0 22 23" id="check">
    <path d="M7.90959 16.9303L2.61105 9.4978C2.01543 8.6623 1.04968 8.66075 0.451962 9.49329C-0.14875 10.33 -0.151071 11.693 0.447529 12.5327L7.90959 23L21.5595 3.64149C22.1492 2.80524 22.1465 1.45791 21.5535 0.626206C20.956 -0.212172 19.986 -0.208215 19.3918 0.63503L7.90959 16.9303Z"></path>
  </symbol>
  <symbol xmlns="http://www.w3.org/2000/svg" viewBox="0 0 40 40" id="drum">
    <path d="M28.75 14V13.125C28.75 9.20312 22.8438 6.25 15 6.25C7.15625 6.25 1.25 9.20312 1.25 13.125V19.375C1.25 22.6406 5.34375 25.2344 11.25 26.0156V26.875C11.25 30.7969 17.1562 33.75 25 33.75C32.8438 33.75 38.75 30.7969 38.75 26.875V20.625C38.75 17.3906 34.7812 14.7969 28.75 14ZM11.25 23.4688V19.7656C12.4936 19.9254 13.7463 20.0037 15 20C16.2537 20.0037 17.5065 19.9254 18.75 19.7656V23.4688C17.5095 23.662 16.2555 23.7561 15 23.75C13.7445 23.7561 12.4905 23.662 11.25 23.4688ZM26.25 17.1719V19.375C26.25 20.6875 24.3125 22.0937 21.25 22.9531V19.2969C23.2656 18.8125 24.9688 18.0781 26.25 17.1719ZM3.75 19.375V17.1719C5.03125 18.0781 6.73438 18.8125 8.75 19.2969V22.9531C5.6875 22.0937 3.75 20.6875 3.75 19.375ZM13.75 26.875V26.2188L15 26.25C15.6146 26.25 16.2084 26.2344 16.7812 26.2031C17.4062 26.4219 18.0625 26.6094 18.75 26.7812V30.4531C15.6875 29.5938 13.75 28.1875 13.75 26.875ZM21.25 30.9688V27.25C22.4934 27.4131 23.746 27.4966 25 27.5C26.2537 27.5037 27.5065 27.4254 28.75 27.2656V30.9688C26.2641 31.3438 23.7359 31.3438 21.25 30.9688ZM31.25 30.4531V26.7969C33.2656 26.3125 34.9688 25.5781 36.25 24.6719V26.875C36.25 28.1875 34.3125 29.5938 31.25 30.4531Z"></path>
  </symbol>
</svg>